<svg width="157" height="162" viewBox="0 0 157 162" fill="none" xmlns="http://www.w3.org/2000/svg">
<path d="M157 83.1345C157 62.315 148.729 42.3482 134.008 27.6266C119.286 12.905 99.3195 4.63446 78.5 4.63446C57.6805 4.63446 37.7137 12.905 22.9921 27.6266C8.27052 42.3482 3.14366e-06 62.315 0 83.1344L20.6009 83.1345C20.6009 67.7786 26.7009 53.0518 37.5591 42.1936C48.4173 31.3354 63.1442 25.2353 78.5 25.2353C93.8558 25.2353 108.583 31.3354 119.441 42.1936C130.299 53.0518 136.399 67.7787 136.399 83.1345H157Z" fill="#3A406B"/>
<path d="M116.744 83.8054C116.744 73.4846 112.644 63.5866 105.346 56.2887C98.0479 48.9908 88.1499 44.8909 77.8291 44.8909C67.5083 44.8909 57.6102 48.9908 50.3124 56.2887C43.0145 63.5866 38.9146 73.4846 38.9146 83.8054L77.8291 83.8054H116.744Z" fill="#5963AB"/>
<rect x="139.193" y="0.855591" width="16.0859" height="104.268" rx="8.04295" transform="rotate(44.1611 139.193 0.855591)" fill="#E7ADD0"/>
</svg>
