<svg width="65" height="149" viewBox="0 0 65 149" fill="none" xmlns="http://www.w3.org/2000/svg">
<path fill-rule="evenodd" clip-rule="evenodd" d="M12.381 0C5.54314 0 0 5.54314 0 12.381V117.619C0 124.457 5.54314 130 12.381 130L13.4127 130C13.4127 119.743 21.7274 111.429 31.9841 111.429C42.2408 111.429 50.5555 119.743 50.5555 130L52.619 130C59.4569 130 65 124.457 65 117.619V12.381C65 5.54314 59.4569 0 52.619 0H12.381Z" fill="#3A406B"/>
<path d="M50.5555 130C50.5555 134.925 48.5989 139.649 45.1161 143.132C41.6333 146.615 36.9096 148.571 31.9841 148.571C27.0587 148.571 22.335 146.615 18.8521 143.132C15.3693 139.649 13.4127 134.925 13.4127 130L31.9841 130H50.5555Z" fill="#6A76AC"/>
<rect y="27.8571" width="43.3333" height="14.4444" fill="#F4EEFF"/>
<rect x="21.6667" y="57.7778" width="43.3333" height="14.4444" fill="#BBD2F5"/>
</svg>
