<svg width="146" height="147" viewBox="0 0 146 147" fill="none" xmlns="http://www.w3.org/2000/svg">
<path d="M135.604 72.6297C135.704 64.4436 134.191 56.3181 131.151 48.7169C128.111 41.1157 123.603 34.1877 117.885 28.3285C112.168 22.4694 105.352 17.7938 97.8275 14.5686C90.3029 11.3435 82.2168 9.63208 74.0307 9.532C65.8447 9.43193 57.7191 10.9452 50.1179 13.9854C42.5167 17.0256 35.5888 21.5332 29.7296 27.2508C23.8704 32.9684 19.1948 39.7841 15.9697 47.3087C12.7446 54.8333 11.0332 62.9195 10.9331 71.1055L18.4574 71.1975C18.5454 63.9996 20.0503 56.8895 22.8861 50.2732C25.7219 43.6568 29.8331 37.6638 34.9851 32.6364C40.137 27.6089 46.2287 23.6454 52.9124 20.9721C59.5961 18.2989 66.7408 16.9683 73.9387 17.0563C81.1367 17.1443 88.2468 18.6492 94.8631 21.485C101.479 24.3208 107.472 28.4321 112.5 33.584C117.527 38.7359 121.491 44.8276 124.164 51.5113C126.837 58.195 128.168 65.3398 128.08 72.5377L135.604 72.6297Z" fill="#6A76AC"/>
<path d="M135.337 74.2003C135.253 82.3865 133.557 90.4759 130.346 98.0067C127.135 105.537 122.473 112.362 116.624 118.091C110.776 123.82 103.857 128.341 96.2615 131.395C88.6661 134.45 80.5435 135.979 72.3573 135.894C64.1711 135.81 56.0816 134.114 48.5509 130.903C41.0201 127.693 34.1955 123.03 28.4666 117.182C22.7378 111.334 18.217 104.414 15.1622 96.819C12.1075 89.2237 10.5787 81.101 10.6631 72.9148L18.1875 72.9924C18.1133 80.1905 19.4576 87.3327 22.1436 94.0112C24.8296 100.69 28.8048 106.774 33.8421 111.916C38.8794 117.058 44.8803 121.158 51.502 123.981C58.1238 126.805 65.2368 128.296 72.4349 128.37C79.6329 128.444 86.7751 127.1 93.4537 124.414C100.132 121.728 106.216 117.753 111.359 112.715C116.501 107.678 120.601 101.677 123.424 95.0555C126.247 88.4337 127.738 81.3208 127.812 74.1227L135.337 74.2003Z" fill="#3A406B"/>
<mask id="path-3-outside-1" maskUnits="userSpaceOnUse" x="27.2728" y="26.0269" width="91" height="91" fill="black">
<rect fill="white" x="27.2728" y="26.0269" width="91" height="91"/>
<path d="M117.091 71.9361C117.091 96.1865 97.4324 115.845 73.182 115.845C48.9316 115.845 29.2728 96.1865 29.2728 71.9361C29.2728 47.6857 48.9316 28.0269 73.182 28.0269C97.4324 28.0269 117.091 47.6857 117.091 71.9361ZM34.5729 71.9361C34.5729 93.2593 51.8588 110.545 73.182 110.545C94.5052 110.545 111.791 93.2593 111.791 71.9361C111.791 50.6129 94.5052 33.327 73.182 33.327C51.8588 33.327 34.5729 50.6129 34.5729 71.9361Z"/>
</mask>
<path d="M117.091 71.9361C117.091 96.1865 97.4324 115.845 73.182 115.845C48.9316 115.845 29.2728 96.1865 29.2728 71.9361C29.2728 47.6857 48.9316 28.0269 73.182 28.0269C97.4324 28.0269 117.091 47.6857 117.091 71.9361ZM34.5729 71.9361C34.5729 93.2593 51.8588 110.545 73.182 110.545C94.5052 110.545 111.791 93.2593 111.791 71.9361C111.791 50.6129 94.5052 33.327 73.182 33.327C51.8588 33.327 34.5729 50.6129 34.5729 71.9361Z" fill="#E7ADD0"/>
<path d="M117.091 71.9361C117.091 96.1865 97.4324 115.845 73.182 115.845C48.9316 115.845 29.2728 96.1865 29.2728 71.9361C29.2728 47.6857 48.9316 28.0269 73.182 28.0269C97.4324 28.0269 117.091 47.6857 117.091 71.9361ZM34.5729 71.9361C34.5729 93.2593 51.8588 110.545 73.182 110.545C94.5052 110.545 111.791 93.2593 111.791 71.9361C111.791 50.6129 94.5052 33.327 73.182 33.327C51.8588 33.327 34.5729 50.6129 34.5729 71.9361Z" stroke="#E7ADD0" stroke-width="2.16836" mask="url(#path-3-outside-1)"/>
<path d="M88.1833 71.9361C88.1833 70.014 87.8047 68.1108 87.0692 66.335C86.3336 64.5592 85.2555 62.9457 83.8964 61.5866C82.5373 60.2275 80.9238 59.1494 79.148 58.4138C77.3722 57.6783 75.469 57.2997 73.5469 57.2997C71.6248 57.2997 69.7215 57.6783 67.9458 58.4138C66.17 59.1494 64.5565 60.2275 63.1974 61.5866C61.8383 62.9457 60.7602 64.5592 60.0246 66.335C59.2891 68.1108 58.9105 70.014 58.9105 71.9361L73.5469 71.9361H88.1833Z" fill="#3A406B"/>
<path d="M88.1833 75.1887C88.1833 77.1107 87.8047 79.014 87.0692 80.7898C86.3336 82.5655 85.2555 84.1791 83.8964 85.5382C82.5373 86.8973 80.9238 87.9754 79.148 88.7109C77.3722 89.4465 75.469 89.8251 73.5469 89.8251C71.6248 89.8251 69.7215 89.4465 67.9458 88.7109C66.17 87.9754 64.5565 86.8973 63.1974 85.5382C61.8383 84.1791 60.7602 82.5655 60.0246 80.7898C59.2891 79.014 58.9105 77.1107 58.9105 75.1887L73.5469 75.1887H88.1833Z" fill="#6A76AC"/>
</svg>
